<svg id="svg" version="1.1" xmlns="http://www.w3.org/2000/svg" xmlns:xlink="http://www.w3.org/1999/xlink" width="400" height="402.07612456747404" viewBox="0, 0, 400,402.07612456747404"><g id="svgg"><path id="path0" d="M0.000 201.000 L 0.000 402.000 200.000 402.000 L 400.000 402.000 400.000 201.000 L 400.000 0.000 200.000 0.000 L 0.000 0.000 0.000 201.000 M391.200 202.200 L 391.200 394.000 199.400 394.000 L 7.600 394.000 7.600 202.200 L 7.600 10.400 199.400 10.400 L 391.200 10.400 391.200 202.200 M189.200 77.120 C 189.200 77.516,189.049 78.011,188.864 78.220 C 188.679 78.429,188.292 79.230,188.004 80.000 C 187.716 80.770,187.219 82.030,186.899 82.800 C 186.580 83.570,186.181 84.560,186.013 85.000 C 185.845 85.440,185.512 86.250,185.274 86.800 C 185.035 87.350,184.094 89.690,183.183 92.000 C 182.271 94.310,181.182 96.963,180.762 97.896 C 180.343 98.828,180.000 99.701,180.000 99.835 C 180.000 100.076,179.694 100.807,178.047 104.496 C 177.581 105.538,177.200 106.501,177.200 106.635 C 177.200 106.769,176.912 107.536,176.559 108.340 C 175.502 110.749,175.321 111.192,173.185 116.600 C 172.055 119.460,170.895 122.340,170.607 123.000 C 170.319 123.660,169.683 125.190,169.193 126.400 C 168.704 127.610,167.965 129.363,167.552 130.296 C 167.138 131.228,166.800 132.101,166.800 132.235 C 166.800 132.369,166.512 133.136,166.159 133.940 C 165.807 134.743,165.375 135.760,165.200 136.200 C 164.034 139.135,163.044 141.568,162.596 142.600 C 162.309 143.260,161.329 145.690,160.417 148.000 C 158.673 152.420,158.469 152.917,157.441 155.260 C 157.088 156.064,156.800 156.831,156.800 156.965 C 156.800 157.099,156.419 158.062,155.953 159.104 C 154.306 162.793,154.000 163.524,154.000 163.765 C 154.000 163.899,153.664 164.772,153.254 165.704 C 152.843 166.637,152.012 168.660,151.408 170.200 C 150.803 171.740,149.969 173.763,149.554 174.696 C 149.139 175.628,148.800 176.501,148.800 176.635 C 148.800 176.904,147.743 179.402,147.166 180.495 C 146.965 180.877,146.800 181.284,146.800 181.400 C 146.800 181.517,152.322 181.564,159.071 181.506 L 171.343 181.400 172.609 177.800 C 173.305 175.820,173.973 173.930,174.093 173.600 C 174.214 173.270,174.616 172.100,174.987 171.000 C 175.358 169.900,175.814 168.640,175.999 168.200 C 176.338 167.396,178.336 161.834,178.622 160.900 C 178.899 159.995,219.466 160.191,219.927 161.100 C 220.122 161.485,220.603 162.790,220.996 164.000 C 221.388 165.210,221.850 166.560,222.023 167.000 C 222.195 167.440,222.815 169.150,223.400 170.800 C 223.985 172.450,224.611 174.160,224.790 174.600 C 224.969 175.040,225.423 176.300,225.799 177.400 C 226.176 178.500,226.689 179.895,226.939 180.500 L 227.395 181.600 239.498 181.600 C 246.154 181.600,251.600 181.492,251.600 181.360 C 251.600 181.229,251.312 180.464,250.959 179.660 C 249.903 177.252,249.721 176.809,247.585 171.400 C 246.455 168.540,245.186 165.437,244.765 164.504 C 244.344 163.572,244.000 162.699,244.000 162.565 C 244.000 162.324,243.694 161.593,242.047 157.904 C 241.581 156.862,241.200 155.899,241.200 155.765 C 241.200 155.631,240.950 154.954,240.645 154.260 C 240.341 153.567,239.601 151.740,239.002 150.200 C 238.403 148.660,237.573 146.708,237.157 145.862 C 236.740 145.016,236.400 144.144,236.400 143.923 C 236.400 143.530,236.175 142.974,234.447 139.104 C 233.981 138.062,233.600 137.099,233.600 136.965 C 233.600 136.831,233.312 136.064,232.959 135.260 C 232.607 134.457,232.162 133.440,231.970 133.000 C 231.779 132.560,231.243 131.210,230.780 130.000 C 230.317 128.790,229.694 127.260,229.395 126.600 C 229.097 125.940,227.925 123.060,226.792 120.200 C 225.658 117.340,224.386 114.237,223.965 113.304 C 223.544 112.372,223.200 111.499,223.200 111.365 C 223.200 111.231,222.930 110.509,222.600 109.760 C 222.270 109.012,221.730 107.788,221.400 107.040 C 221.070 106.291,220.800 105.569,220.800 105.435 C 220.800 105.301,220.422 104.338,219.960 103.296 C 218.556 100.126,218.479 99.938,216.800 95.600 C 215.906 93.290,215.019 91.040,214.828 90.600 C 214.638 90.160,214.193 89.143,213.841 88.340 C 213.488 87.536,213.200 86.769,213.200 86.635 C 213.200 86.501,212.819 85.538,212.353 84.496 C 211.349 82.247,210.709 80.703,209.993 78.800 C 209.050 76.295,209.533 76.400,198.951 76.400 C 189.828 76.400,189.200 76.446,189.200 77.120 M200.211 105.904 C 200.581 106.947,201.031 108.160,201.210 108.600 C 201.554 109.445,203.436 114.706,204.000 116.400 C 204.621 118.264,206.462 123.396,206.799 124.200 C 206.983 124.640,207.611 126.440,208.193 128.200 C 208.776 129.960,209.401 131.760,209.584 132.200 C 209.766 132.640,210.218 133.900,210.589 135.000 C 210.959 136.100,211.406 137.360,211.581 137.800 C 211.757 138.240,212.098 139.093,212.339 139.695 C 213.281 142.044,213.522 142.001,199.457 141.994 C 192.386 141.991,186.364 141.838,186.077 141.656 C 185.596 141.351,186.902 136.471,188.392 133.000 C 188.727 132.221,190.531 127.208,191.200 125.200 C 191.846 123.261,193.668 118.190,194.003 117.400 C 194.190 116.960,194.705 115.520,195.149 114.200 C 195.592 112.880,196.595 110.001,197.377 107.801 C 198.160 105.602,198.800 103.747,198.800 103.678 C 198.800 103.017,199.676 104.400,200.211 105.904 M159.600 284.800 L 159.600 337.600 174.879 337.600 C 190.352 337.600,197.285 337.234,202.000 336.168 C 206.654 335.115,208.193 334.688,208.580 334.341 C 208.789 334.153,209.195 334.000,209.482 334.000 C 209.769 334.000,210.937 333.550,212.077 333.000 C 213.217 332.450,214.386 332.000,214.675 332.000 C 214.964 332.000,215.200 331.859,215.200 331.688 C 215.200 331.516,215.695 331.162,216.300 330.901 C 218.099 330.126,220.463 328.629,223.400 326.406 C 228.463 322.572,234.784 314.617,237.683 308.428 C 238.566 306.543,239.449 304.687,239.645 304.305 C 239.840 303.923,240.000 303.284,240.000 302.885 C 240.000 302.486,240.156 301.989,240.347 301.780 C 240.538 301.571,241.000 299.960,241.373 298.200 C 241.746 296.440,242.232 294.309,242.453 293.464 C 242.966 291.498,242.970 277.732,242.458 275.723 C 242.244 274.886,241.851 273.210,241.585 272.000 C 240.550 267.299,238.224 261.419,235.574 256.800 C 233.227 252.710,227.310 245.968,223.800 243.383 C 222.920 242.735,222.110 242.098,222.000 241.968 C 221.018 240.805,213.619 236.825,210.101 235.566 C 208.835 235.114,207.440 234.589,207.000 234.402 C 206.118 234.025,204.904 233.746,201.600 233.159 C 200.390 232.944,198.632 232.596,197.694 232.384 C 196.740 232.169,187.978 232.000,177.794 232.000 L 159.600 232.000 159.600 284.800 M196.400 253.808 C 204.377 255.635,211.804 260.958,215.254 267.319 C 217.055 270.640,218.753 274.786,218.779 275.926 C 218.791 276.436,218.990 277.207,219.222 277.641 C 219.763 278.652,219.787 289.961,219.252 291.698 C 219.032 292.414,218.642 293.810,218.385 294.800 C 214.967 308.001,202.993 316.400,187.594 316.400 L 182.000 316.400 182.000 284.800 L 182.000 253.200 187.900 253.206 C 191.674 253.210,194.737 253.426,196.400 253.808 " stroke="none" fill="#e3e3e3" fill-rule="evenodd"></path><path id="path1" d="M8.185 11.700 C 8.081 11.975,8.041 97.970,8.098 202.800 L 8.200 393.400 199.500 393.500 L 390.800 393.601 390.800 202.400 L 390.800 11.200 199.587 11.200 C 46.985 11.200,8.337 11.301,8.185 11.700 M209.475 76.100 C 209.799 76.535,210.462 78.059,211.607 81.000 C 211.778 81.440,212.207 82.457,212.559 83.260 C 212.912 84.064,213.200 84.831,213.200 84.965 C 213.200 85.099,213.581 86.062,214.047 87.104 C 215.694 90.793,216.000 91.524,216.000 91.765 C 216.000 91.899,216.381 92.862,216.847 93.904 C 218.588 97.804,218.800 98.332,218.800 98.766 C 218.800 99.011,218.965 99.523,219.166 99.905 C 220.094 101.668,221.600 105.273,221.600 105.731 C 221.600 106.011,221.758 106.411,221.951 106.620 C 222.143 106.829,222.697 108.080,223.181 109.400 C 223.665 110.720,224.317 112.385,224.630 113.100 C 224.944 113.815,225.470 115.012,225.800 115.760 C 226.130 116.509,226.400 117.231,226.400 117.365 C 226.400 117.499,226.735 118.372,227.145 119.304 C 227.797 120.787,228.269 121.956,229.606 125.400 C 229.777 125.840,230.386 127.240,230.959 128.511 C 231.531 129.782,232.000 131.051,232.000 131.331 C 232.000 131.611,232.151 132.011,232.336 132.220 C 232.521 132.429,232.908 133.230,233.196 134.000 C 233.679 135.290,233.984 136.038,235.400 139.400 C 235.678 140.060,236.751 142.760,237.783 145.400 C 238.816 148.040,240.007 150.963,240.430 151.896 C 240.854 152.828,241.200 153.701,241.200 153.835 C 241.200 154.068,241.475 154.730,242.967 158.092 C 243.332 158.912,243.886 160.311,244.200 161.200 C 244.514 162.089,245.038 163.398,245.365 164.108 C 245.693 164.819,246.695 167.290,247.593 169.600 C 248.491 171.910,249.381 174.160,249.572 174.600 C 249.762 175.040,250.213 176.071,250.574 176.892 C 251.735 179.533,252.400 181.676,252.174 182.043 C 252.052 182.240,246.416 182.400,239.586 182.400 L 227.218 182.400 226.660 181.500 C 226.353 181.005,225.785 179.610,225.396 178.400 C 224.606 175.934,224.293 175.051,223.696 173.600 C 223.470 173.050,222.982 171.700,222.611 170.600 C 222.241 169.500,221.786 168.240,221.600 167.800 C 221.414 167.360,220.955 166.100,220.579 165.000 C 220.203 163.900,219.695 162.505,219.450 161.900 L 219.005 160.800 199.351 160.800 C 184.091 160.800,179.616 160.912,179.331 161.300 C 179.129 161.575,178.465 163.330,177.854 165.200 C 177.243 167.070,176.552 169.050,176.318 169.600 C 175.708 171.035,175.372 171.940,174.611 174.200 C 174.241 175.300,173.786 176.560,173.600 177.000 C 173.414 177.440,172.942 178.700,172.552 179.800 C 171.579 182.538,172.366 182.388,159.000 182.388 C 144.570 182.388,145.420 182.693,147.378 178.206 C 147.667 177.543,148.305 176.010,148.794 174.800 C 149.283 173.590,149.910 172.060,150.187 171.400 C 150.465 170.740,151.010 169.390,151.400 168.400 C 151.790 167.410,152.445 165.837,152.855 164.904 C 153.265 163.972,153.600 163.099,153.600 162.965 C 153.600 162.724,153.906 161.993,155.553 158.304 C 156.019 157.262,156.400 156.299,156.400 156.165 C 156.400 156.031,156.691 155.264,157.047 154.460 C 158.541 151.092,158.800 150.467,158.800 150.235 C 158.800 150.101,159.136 149.228,159.546 148.296 C 159.957 147.363,160.788 145.340,161.392 143.800 C 161.997 142.260,162.831 140.237,163.246 139.304 C 163.661 138.372,164.000 137.499,164.000 137.365 C 164.000 137.124,164.306 136.393,165.953 132.704 C 166.419 131.662,166.800 130.699,166.800 130.565 C 166.800 130.431,167.088 129.664,167.441 128.860 C 167.793 128.057,168.218 127.040,168.385 126.600 C 168.552 126.160,168.984 125.119,169.345 124.286 C 169.705 123.454,170.000 122.509,170.000 122.186 C 170.000 121.864,170.180 121.600,170.400 121.600 C 170.620 121.600,170.800 121.251,170.800 120.824 C 170.800 120.397,170.980 119.936,171.200 119.800 C 171.420 119.664,171.600 119.276,171.600 118.937 C 171.600 118.338,171.776 117.884,173.553 113.904 C 174.019 112.862,174.400 111.899,174.400 111.765 C 174.400 111.533,174.659 110.908,176.153 107.540 C 176.509 106.736,176.800 105.969,176.800 105.835 C 176.800 105.701,177.181 104.738,177.647 103.696 C 179.294 100.007,179.600 99.276,179.600 99.035 C 179.600 98.901,179.939 98.028,180.353 97.096 C 180.767 96.163,181.334 94.770,181.613 94.000 C 182.252 92.237,182.879 90.711,183.953 88.304 C 184.419 87.262,184.800 86.299,184.800 86.165 C 184.800 86.031,185.070 85.309,185.400 84.560 C 185.730 83.812,186.270 82.588,186.600 81.840 C 186.930 81.091,187.200 80.377,187.200 80.251 C 187.200 80.126,187.655 79.028,188.212 77.812 L 189.223 75.600 199.163 75.600 C 206.649 75.600,209.194 75.723,209.475 76.100 M198.208 107.732 C 197.784 109.089,197.315 110.470,197.165 110.800 C 196.517 112.229,196.022 113.540,195.353 115.600 C 194.960 116.810,194.495 117.971,194.319 118.180 C 194.144 118.389,194.000 118.886,194.000 119.285 C 194.000 119.684,193.836 120.323,193.635 120.705 C 193.435 121.087,192.971 122.300,192.604 123.400 C 192.238 124.500,191.780 125.760,191.587 126.200 C 191.394 126.640,190.767 128.440,190.193 130.200 C 189.620 131.960,188.996 133.760,188.806 134.200 C 188.617 134.640,188.162 135.900,187.796 137.000 C 187.429 138.100,186.965 139.313,186.765 139.695 C 186.564 140.077,186.400 140.482,186.400 140.595 C 186.400 140.708,192.070 140.800,199.000 140.800 C 208.425 140.800,211.600 140.681,211.600 140.327 C 211.600 139.872,209.886 134.641,209.199 133.000 C 208.305 130.864,206.800 126.527,206.800 126.086 C 206.800 125.813,206.631 125.277,206.425 124.895 C 206.219 124.513,205.574 122.850,204.993 121.200 C 204.411 119.550,203.784 117.840,203.599 117.400 C 203.414 116.960,202.962 115.700,202.596 114.600 C 202.229 113.500,201.765 112.287,201.565 111.905 C 201.364 111.523,201.200 110.884,201.200 110.485 C 201.200 110.086,201.051 109.589,200.870 109.380 C 200.688 109.171,200.296 108.226,199.999 107.280 C 199.247 104.887,199.084 104.928,198.208 107.732 M195.400 231.612 C 201.587 232.118,205.486 232.956,210.200 234.792 C 212.660 235.751,214.624 236.604,214.800 236.789 C 214.910 236.905,215.720 237.332,216.600 237.738 C 222.154 240.299,230.358 247.814,234.711 254.327 C 236.921 257.635,237.644 258.979,239.808 263.800 C 240.647 265.671,241.600 268.749,241.600 269.590 C 241.600 270.010,241.761 270.452,241.958 270.574 C 242.367 270.827,242.518 271.723,243.424 279.265 C 244.093 284.835,243.707 291.816,242.443 297.000 C 242.228 297.880,241.858 299.410,241.619 300.400 C 241.381 301.390,241.009 302.605,240.793 303.100 C 240.577 303.595,240.254 304.405,240.077 304.900 C 235.714 317.040,223.662 329.446,212.000 333.802 C 211.010 334.172,209.840 334.623,209.400 334.805 C 207.582 335.558,204.598 336.400,203.752 336.400 C 203.255 336.400,202.749 336.558,202.630 336.751 C 202.169 337.498,196.721 337.723,178.200 337.761 L 159.000 337.800 158.897 285.000 C 158.841 255.960,158.880 231.975,158.985 231.700 C 159.206 231.117,188.482 231.046,195.400 231.612 M182.898 284.700 L 183.000 315.800 185.400 315.933 C 188.169 316.085,198.307 314.874,198.630 314.351 C 198.750 314.158,199.287 314.000,199.824 314.000 C 200.361 314.000,200.800 313.820,200.800 313.600 C 200.800 313.380,201.047 313.200,201.350 313.200 C 203.476 313.200,209.860 308.326,212.613 304.600 C 213.263 303.720,213.895 302.910,214.017 302.800 C 214.668 302.214,217.256 296.271,217.762 294.200 C 219.093 288.756,219.277 287.269,219.077 283.592 C 218.452 272.113,213.886 263.565,205.600 258.360 C 203.672 257.149,202.583 256.624,199.000 255.182 C 196.924 254.347,191.392 253.670,186.298 253.628 L 182.795 253.600 182.898 284.700 " stroke="none" fill="#14141c" fill-rule="evenodd"></path><path id="path2" d="M198.968 76.300 C 205.783 76.382,208.718 76.557,209.168 76.907 C 209.726 77.342,209.736 77.318,209.251 76.700 C 208.752 76.063,207.833 76.008,199.051 76.092 L 189.400 76.185 198.968 76.300 M210.618 80.500 C 210.768 80.995,211.055 81.576,211.256 81.791 C 211.457 82.006,211.419 81.601,211.172 80.891 C 210.665 79.438,210.197 79.108,210.618 80.500 M218.218 99.300 C 218.368 99.795,218.655 100.376,218.856 100.591 C 219.057 100.806,219.019 100.401,218.772 99.691 C 218.265 98.238,217.797 97.908,218.218 99.300 M179.267 100.780 C 179.033 101.451,178.927 102.000,179.031 102.000 C 179.301 102.000,180.056 99.922,179.857 99.724 C 179.767 99.633,179.501 100.108,179.267 100.780 M198.633 104.257 C 198.495 104.619,198.475 105.009,198.591 105.124 C 198.706 105.239,198.800 105.101,198.800 104.818 C 198.800 104.410,198.940 104.417,199.465 104.851 C 200.069 105.349,200.086 105.316,199.651 104.500 C 199.079 103.426,198.963 103.398,198.633 104.257 M221.018 106.100 C 221.168 106.595,221.455 107.176,221.656 107.391 C 221.857 107.606,221.819 107.201,221.572 106.491 C 221.065 105.038,220.597 104.708,221.018 106.100 M197.644 106.844 C 197.398 107.551,197.266 108.200,197.352 108.285 C 197.438 108.371,197.709 107.862,197.956 107.156 C 198.202 106.449,198.334 105.800,198.248 105.715 C 198.162 105.629,197.891 106.138,197.644 106.844 M228.618 124.900 C 228.768 125.395,229.055 125.976,229.256 126.191 C 229.457 126.406,229.419 126.001,229.172 125.291 C 228.665 123.838,228.197 123.508,228.618 124.900 M212.262 140.983 C 211.950 141.796,186.887 141.927,186.080 141.120 C 185.759 140.799,185.600 140.785,185.600 141.077 C 185.600 142.288,212.104 142.549,212.567 141.343 C 212.705 140.981,212.747 140.613,212.659 140.525 C 212.571 140.437,212.392 140.643,212.262 140.983 M158.467 151.980 C 158.233 152.651,158.127 153.200,158.231 153.200 C 158.501 153.200,159.256 151.122,159.057 150.924 C 158.967 150.833,158.701 151.308,158.467 151.980 M219.895 162.004 C 220.241 162.887,220.597 163.536,220.686 163.448 C 220.878 163.255,219.723 160.400,219.453 160.400 C 219.349 160.400,219.548 161.122,219.895 162.004 M174.844 171.244 C 174.598 171.951,174.466 172.600,174.552 172.685 C 174.638 172.771,174.909 172.262,175.156 171.556 C 175.402 170.849,175.534 170.200,175.448 170.115 C 175.362 170.029,175.091 170.538,174.844 171.244 M249.418 176.100 C 249.568 176.595,249.855 177.176,250.056 177.391 C 250.257 177.606,250.219 177.201,249.972 176.491 C 249.465 175.038,248.997 174.708,249.418 176.100 M148.067 177.580 C 147.833 178.251,147.727 178.800,147.831 178.800 C 148.101 178.800,148.856 176.722,148.657 176.524 C 148.567 176.433,148.301 176.908,148.067 177.580 M226.751 180.880 L 227.091 181.800 239.546 181.906 C 252.026 182.012,253.608 181.841,251.605 180.603 C 251.378 180.463,251.311 180.623,251.447 180.979 C 251.659 181.532,250.343 181.600,239.443 181.600 C 229.050 181.600,227.200 181.513,227.200 181.024 C 227.200 180.707,227.022 180.337,226.805 180.203 C 226.554 180.048,226.534 180.293,226.751 180.880 M159.000 181.600 L 146.600 181.817 158.876 181.909 C 166.729 181.967,171.242 181.856,171.400 181.600 C 171.536 181.380,171.592 181.241,171.524 181.291 C 171.456 181.342,165.820 181.480,159.000 181.600 M159.385 232.100 C 159.280 232.375,159.241 256.270,159.299 285.200 L 159.403 337.800 159.501 284.904 L 159.600 232.009 176.300 231.900 L 193.000 231.791 176.287 231.695 C 163.215 231.621,159.533 231.709,159.385 232.100 M197.400 232.397 C 198.164 232.728,201.114 232.955,200.767 232.656 C 200.675 232.577,199.700 232.409,198.600 232.282 C 197.313 232.133,196.885 232.174,197.400 232.397 M209.200 235.133 C 209.530 235.336,210.250 235.624,210.800 235.771 C 211.495 235.957,211.617 235.925,211.200 235.667 C 210.870 235.464,210.150 235.176,209.600 235.029 C 208.905 234.843,208.783 234.875,209.200 235.133 M222.015 241.866 C 222.030 242.195,225.200 244.547,225.200 244.230 C 225.200 244.140,224.480 243.497,223.600 242.800 C 222.720 242.103,222.007 241.683,222.015 241.866 M226.833 246.100 C 226.925 246.155,227.540 246.650,228.200 247.200 L 229.400 248.200 228.430 247.100 C 227.897 246.495,227.282 246.000,227.064 246.000 C 226.845 246.000,226.742 246.045,226.833 246.100 M231.600 251.200 C 232.297 252.080,232.957 252.800,233.067 252.800 C 233.177 252.800,232.697 252.080,232.000 251.200 C 231.303 250.320,230.643 249.600,230.533 249.600 C 230.423 249.600,230.903 250.320,231.600 251.200 M234.000 254.400 C 234.470 255.060,234.944 255.600,235.054 255.600 C 235.164 255.600,234.870 255.060,234.400 254.400 C 233.930 253.740,233.456 253.200,233.346 253.200 C 233.236 253.200,233.530 253.740,234.000 254.400 M209.600 260.525 C 209.600 260.594,210.185 261.179,210.900 261.825 L 212.200 263.000 211.025 261.700 C 209.930 260.488,209.600 260.216,209.600 260.525 M213.388 265.000 C 215.277 267.517,215.521 267.741,214.562 266.076 C 214.143 265.348,213.370 264.358,212.844 263.876 C 212.281 263.360,212.505 263.822,213.388 265.000 M239.267 264.420 C 239.501 265.092,239.767 265.567,239.857 265.476 C 240.056 265.278,239.301 263.200,239.031 263.200 C 238.927 263.200,239.033 263.749,239.267 264.420 M240.868 268.800 C 240.888 269.839,241.518 271.546,241.532 270.600 C 241.538 270.160,241.389 269.440,241.200 269.000 C 240.989 268.510,240.861 268.432,240.868 268.800 M242.028 274.033 C 242.044 274.565,242.219 275.360,242.419 275.800 C 242.671 276.358,242.707 276.115,242.538 275.000 C 242.255 273.143,241.987 272.636,242.028 274.033 M218.056 274.000 C 218.056 274.330,218.211 274.960,218.400 275.400 C 218.617 275.904,218.744 275.978,218.744 275.600 C 218.744 275.270,218.589 274.640,218.400 274.200 C 218.183 273.696,218.056 273.622,218.056 274.000 M219.050 278.800 C 219.375 281.041,219.602 281.360,219.594 279.567 C 219.591 278.815,219.408 277.930,219.188 277.600 C 218.909 277.181,218.867 277.542,219.050 278.800 M242.946 284.600 C 242.951 289.317,243.008 289.959,243.214 287.600 C 243.359 285.950,243.356 283.250,243.209 281.600 C 242.997 279.238,242.941 279.877,242.946 284.600 M219.260 289.667 C 219.227 290.254,219.096 291.064,218.970 291.467 C 218.752 292.160,218.765 292.161,219.195 291.490 C 219.446 291.099,219.577 290.289,219.486 289.690 L 219.320 288.600 219.260 289.667 M242.256 293.684 C 242.121 294.188,242.028 295.050,242.049 295.600 C 242.072 296.189,242.231 295.871,242.436 294.825 C 242.803 292.952,242.673 292.127,242.256 293.684 M218.229 294.229 C 218.081 294.815,218.038 295.372,218.132 295.466 C 218.227 295.560,218.424 295.158,218.571 294.571 C 218.719 293.985,218.762 293.428,218.668 293.334 C 218.573 293.240,218.376 293.642,218.229 294.229 M217.267 297.180 C 217.033 297.851,216.927 298.400,217.031 298.400 C 217.301 298.400,218.056 296.322,217.857 296.124 C 217.767 296.033,217.501 296.508,217.267 297.180 M215.878 300.205 C 215.512 300.972,215.295 301.600,215.396 301.600 C 215.670 301.600,216.884 299.151,216.701 298.968 C 216.614 298.881,216.244 299.438,215.878 300.205 M210.181 308.100 L 208.600 309.800 210.300 308.219 C 211.235 307.349,212.000 306.584,212.000 306.519 C 212.000 306.216,211.652 306.519,210.181 308.100 M192.400 316.000 L 190.600 316.280 192.200 316.312 C 193.080 316.329,194.160 316.189,194.600 316.000 C 195.527 315.602,194.961 315.602,192.400 316.000 M227.588 322.700 L 225.000 325.400 227.700 322.812 C 229.185 321.388,230.400 320.173,230.400 320.112 C 230.400 319.817,229.993 320.192,227.588 322.700 M201.000 336.400 C 199.981 336.838,201.032 336.838,202.400 336.400 C 203.204 336.143,203.243 336.077,202.600 336.068 C 202.160 336.062,201.440 336.211,201.000 336.400 M196.900 337.076 C 197.285 337.176,197.915 337.176,198.300 337.076 C 198.685 336.975,198.370 336.893,197.600 336.893 C 196.830 336.893,196.515 336.975,196.900 337.076 M192.900 337.487 C 193.505 337.578,194.495 337.578,195.100 337.487 C 195.705 337.395,195.210 337.320,194.000 337.320 C 192.790 337.320,192.295 337.395,192.900 337.487 M103.533 393.900 C 156.406 393.956,242.806 393.956,295.533 393.900 C 348.260 393.844,305.000 393.798,199.400 393.798 C 93.800 393.798,50.660 393.844,103.533 393.900 " stroke="none" fill="#8c8c92" fill-rule="evenodd"></path><path id="path3" d="M186.345 141.306 C 186.514 141.474,192.400 141.564,199.426 141.505 L 212.200 141.399 199.120 141.200 C 191.925 141.090,186.177 141.138,186.345 141.306 M189.528 160.700 C 195.098 160.763,204.098 160.762,209.528 160.700 C 214.958 160.637,210.400 160.585,199.400 160.586 C 188.400 160.586,183.958 160.637,189.528 160.700 M193.705 231.887 C 194.314 231.979,195.214 231.977,195.705 231.882 C 196.197 231.787,195.700 231.711,194.600 231.714 C 193.500 231.717,193.097 231.795,193.705 231.887 M182.190 284.600 C 182.190 301.540,182.240 308.412,182.300 299.870 C 182.360 291.329,182.360 277.469,182.300 269.070 C 182.240 260.672,182.190 267.660,182.190 284.600 M210.400 261.800 C 211.146 262.570,211.847 263.200,211.957 263.200 C 212.067 263.200,211.546 262.570,210.800 261.800 C 210.054 261.030,209.353 260.400,209.243 260.400 C 209.133 260.400,209.654 261.030,210.400 261.800 M219.293 287.600 C 219.293 288.370,219.375 288.685,219.476 288.300 C 219.576 287.915,219.576 287.285,219.476 286.900 C 219.375 286.515,219.293 286.830,219.293 287.600 M184.700 316.295 C 185.855 316.376,187.745 316.376,188.900 316.295 C 190.055 316.214,189.110 316.148,186.800 316.148 C 184.490 316.148,183.545 316.214,184.700 316.295 " stroke="none" fill="#7c7c81" fill-rule="evenodd"></path><path id="path4" d="M8.000 11.100 C 8.000 11.371,135.879 11.370,321.800 11.099 C 359.860 11.043,304.825 10.953,199.500 10.899 C 94.175 10.844,8.000 10.935,8.000 11.100 M189.061 75.900 C 188.959 76.065,191.873 76.154,195.537 76.097 C 208.132 75.902,209.381 75.766,199.324 75.683 C 193.782 75.637,189.163 75.735,189.061 75.900 M211.600 140.394 C 211.600 140.643,206.904 140.830,198.900 140.900 L 186.200 141.012 199.100 141.106 C 210.342 141.188,212.000 141.123,212.000 140.600 C 212.000 140.270,211.910 140.000,211.800 140.000 C 211.690 140.000,211.600 140.177,211.600 140.394 M252.000 181.533 C 252.000 181.877,248.703 182.025,239.500 182.094 L 227.000 182.188 239.374 182.300 C 250.967 182.405,253.174 182.240,252.273 181.340 C 252.123 181.190,252.000 181.277,252.000 181.533 M152.925 182.299 C 156.404 182.366,161.984 182.366,165.325 182.299 C 168.666 182.232,165.820 182.178,159.000 182.178 C 152.180 182.178,149.446 182.233,152.925 182.299 M158.985 231.700 C 158.318 233.451,159.029 337.792,159.708 337.854 C 160.203 337.899,160.233 337.862,159.808 337.730 C 159.268 337.562,159.200 331.610,159.200 284.575 L 159.200 231.609 175.900 231.500 L 192.600 231.391 175.887 231.295 C 162.815 231.221,159.133 231.309,158.985 231.700 M197.633 231.744 C 197.725 231.823,198.340 232.008,199.000 232.156 C 199.876 232.352,200.038 232.315,199.600 232.018 C 199.060 231.653,197.232 231.398,197.633 231.744 M226.000 244.600 C 226.746 245.370,227.447 246.000,227.557 246.000 C 227.667 246.000,227.146 245.370,226.400 244.600 C 225.654 243.830,224.953 243.200,224.843 243.200 C 224.733 243.200,225.254 243.830,226.000 244.600 M230.000 248.600 C 230.746 249.370,231.447 250.000,231.557 250.000 C 231.667 250.000,231.146 249.370,230.400 248.600 C 229.654 247.830,228.953 247.200,228.843 247.200 C 228.733 247.200,229.254 247.830,230.000 248.600 M182.494 284.476 C 182.442 301.568,182.535 315.636,182.700 315.738 C 182.972 315.907,182.969 293.817,182.693 264.600 C 182.635 258.440,182.545 267.384,182.494 284.476 M191.300 253.876 C 191.685 253.976,192.315 253.976,192.700 253.876 C 193.085 253.775,192.770 253.693,192.000 253.693 C 191.230 253.693,190.915 253.775,191.300 253.876 M210.383 262.100 C 212.041 263.866,212.400 264.184,212.400 263.883 C 212.400 263.819,211.545 262.964,210.500 261.983 L 208.600 260.200 210.383 262.100 M242.893 275.600 C 242.893 276.370,242.975 276.685,243.076 276.300 C 243.176 275.915,243.176 275.285,243.076 274.900 C 242.975 274.515,242.893 274.830,242.893 275.600 M243.731 284.600 C 243.733 286.140,243.805 286.721,243.892 285.891 C 243.979 285.061,243.977 283.801,243.889 283.091 C 243.800 282.381,243.729 283.060,243.731 284.600 M193.700 315.476 C 194.085 315.576,194.715 315.576,195.100 315.476 C 195.485 315.375,195.170 315.293,194.400 315.293 C 193.630 315.293,193.315 315.375,193.700 315.476 M233.923 315.900 C 233.218 316.721,232.690 317.600,232.901 317.600 C 232.983 317.600,233.449 317.060,233.937 316.400 C 234.901 315.096,234.892 314.772,233.923 315.900 M190.500 315.876 C 190.885 315.976,191.515 315.976,191.900 315.876 C 192.285 315.775,191.970 315.693,191.200 315.693 C 190.430 315.693,190.115 315.775,190.500 315.876 M228.229 322.762 L 227.058 324.200 228.409 322.913 C 229.151 322.205,229.678 321.558,229.579 321.475 C 229.481 321.392,228.873 321.971,228.229 322.762 M191.700 337.894 C 192.745 337.976,194.455 337.976,195.500 337.894 C 196.545 337.812,195.690 337.744,193.600 337.744 C 191.510 337.744,190.655 337.812,191.700 337.894 " stroke="none" fill="#444c54" fill-rule="evenodd"></path><path id="path5" d="M103.900 10.700 C 156.535 10.756,242.665 10.756,295.300 10.700 C 347.935 10.644,304.870 10.598,199.600 10.598 C 94.330 10.598,51.265 10.644,103.900 10.700 M7.798 202.400 C 7.798 307.670,7.844 350.735,7.900 298.100 C 7.956 245.465,7.956 159.335,7.900 106.700 C 7.844 54.065,7.798 97.130,7.798 202.400 M390.998 202.200 C 390.998 307.360,391.044 350.320,391.100 297.667 C 391.156 245.014,391.156 158.974,391.100 106.467 C 391.044 53.960,390.998 97.040,390.998 202.200 M184.700 253.495 C 185.855 253.576,187.745 253.576,188.900 253.495 C 190.055 253.414,189.110 253.348,186.800 253.348 C 184.490 253.348,183.545 253.414,184.700 253.495 M219.314 284.600 C 219.317 285.700,219.395 286.103,219.487 285.495 C 219.579 284.886,219.577 283.986,219.482 283.495 C 219.387 283.003,219.311 283.500,219.314 284.600 M167.700 337.899 C 171.825 337.964,178.575 337.964,182.700 337.899 C 186.825 337.834,183.450 337.781,175.200 337.781 C 166.950 337.781,163.575 337.834,167.700 337.899 " stroke="none" fill="#5a5b63" fill-rule="evenodd"></path></g></svg>